<svg xmlns="http://www.w3.org/2000/svg" viewBox="0 0 285.35 418.23"><defs><style>.cls-1{fill:#2e2c73;}.cls-2{fill:#fcc491;}.cls-3,.cls-4,.cls-6{fill:none;stroke-miterlimit:10;}.cls-3,.cls-4{stroke:#ffd160;}.cls-3{stroke-width:2px;}.cls-4{stroke-width:0.75px;}.cls-5{fill:#fff;}.cls-6{stroke:#2e2c73;stroke-width:4px;}.cls-7{fill:#ffd160;}</style></defs><g id="Layer_2" data-name="Layer 2"><g id="Layer_1-2" data-name="Layer 1"><path class="cls-1" d="M28.68,381.56V316.49a2,2,0,0,0-2.23-2.23,2,2,0,0,0-2.24,2.23v65.07h-9V316.49A2,2,0,0,0,13,314.26a2,2,0,0,0-2.23,2.23v65.07h-9V316.49c0-2.25,1.17-4,3.5-5.3a14.5,14.5,0,0,1,6.53-1.4,11.33,11.33,0,0,1,7.93,3.11,11,11,0,0,1,7.63-3.11,14.89,14.89,0,0,1,6.7,1.4,5.59,5.59,0,0,1,3.59,5.3v65.07Z"/><path class="cls-1" d="M62.08,380.2a17.08,17.08,0,0,1-7.28,1.36,16.79,16.79,0,0,1-7.18-1.36q-4-1.69-4-5.39V325.48c0-2.46,1.34-4.28,4-5.48a19,19,0,0,1,7.18-1.27A19.35,19.35,0,0,1,62.08,320c2.63,1.2,3.94,3,3.94,5.48v24.67H52.57v24.66a2,2,0,0,0,2.32,2.28c1.43,0,2.15-.76,2.15-2.28v-4.46h9v4.46Q66,378.46,62.08,380.2Zm-5-54.72a2,2,0,0,0-2.24-2.24,2,2,0,0,0-2.23,2.24v20.2H57Z"/><path class="cls-1" d="M82.81,381.56a16.75,16.75,0,0,1-7.18-1.36q-4-1.69-4-5.39V352.38q0-6.7,11.22-6.7c.12,0,.86.17,2.24.52V325.48a2.24,2.24,0,1,0-4.47,0V330h-9v-4.47c0-2.46,1.35-4.28,4-5.48a19,19,0,0,1,7.18-1.27A19.35,19.35,0,0,1,90.09,320c2.62,1.2,3.94,3,3.94,5.48v56.08Zm2.24-29.18a2.24,2.24,0,0,0-4.47,0v22.43a2,2,0,0,0,2.23,2.28h2.24Z"/><path class="cls-1" d="M99.87,381.56V309.79h9v71.77Z"/><path class="cls-1" d="M146.33,381.56v-40.4h-4.47v40.4h-9V309.79h9v26.9h4.47v-26.9h9v71.77Z"/><path class="cls-1" d="M179.81,380.2a17,17,0,0,1-7.27,1.36,16.83,16.83,0,0,1-7.19-1.36q-4-1.69-4-5.39V325.48c0-2.46,1.34-4.28,4-5.48a19.09,19.09,0,0,1,7.19-1.27,19.29,19.29,0,0,1,7.27,1.27c2.63,1.2,3.95,3,3.95,5.48v24.67H170.3v24.66a2,2,0,0,0,2.33,2.28c1.43,0,2.14-.76,2.14-2.28v-4.46h9v4.46Q183.76,378.46,179.81,380.2Zm-5-54.72a2.24,2.24,0,1,0-4.47,0v20.2h4.47Z"/><path class="cls-1" d="M189.5,381.56V309.79h9v71.77Z"/><path class="cls-1" d="M224.87,379.55a6.42,6.42,0,0,1-4.77,2h-6.71v8.9h-9V318.73H220.1a6.79,6.79,0,0,1,6.74,6.75v49.33A6.54,6.54,0,0,1,224.87,379.55Zm-7-54.07a2,2,0,0,0-2.23-2.24h-2.24v53.85h2.24a2,2,0,0,0,2.23-2.28Z"/><path class="cls-1" d="M250.73,380.2a19.9,19.9,0,0,1-14.46,0c-2.68-1.13-4-2.93-4-5.39V325.48c0-2.46,1.35-4.28,4-5.48a21.21,21.21,0,0,1,14.46,0c2.63,1.2,4,3,4,5.48v24.67H241.23v24.66a2,2,0,0,0,2.32,2.28c1.43,0,2.14-.76,2.14-2.28v-4.46h9v4.46Q254.68,378.46,250.73,380.2Zm-5-54.72a2.23,2.23,0,1,0-4.46,0v20.2h4.46Z"/><path class="cls-1" d="M273.88,330v-6.71h-2.24a2,2,0,0,0-2.23,2.24v56.08h-9V325.48c0-2.46,1.34-4.28,4-5.48a19,19,0,0,1,7.18-1.27h11.22V330Z"/><path class="cls-2" d="M35.21,400.34h2.21v9.09h1.93v-9.09h2.21v15.33H39.35v-4.05H37.42v4.05H35.21Z"/><path class="cls-2" d="M43.6,400.34h5.73v2.18H45.81v6.9h3v2.19h-3v1.88h3.52v2.18H43.6Z"/><path class="cls-2" d="M51,415.67V400.34h2.21v13.15h3.53v2.18Z"/><path class="cls-2" d="M58,400.34h3.22c2,0,3,1.08,3,3.23v4.81a2.9,2.9,0,0,1-2.12,3.06,5,5,0,0,1-1.48.17h-.36v4.06H58Zm2.21,2.18v6.9h.51a2.16,2.16,0,0,0,.63-.06,1,1,0,0,0,.61-1v-4.81q0-1.05-1-1.05Z"/><path class="cls-2" d="M71.45,400.34,73,408.26l1.5-7.92h2.35l-2.75,11.3v4H71.85v-4l-2.75-11.3Z"/><path class="cls-2" d="M84.33,412.69q0,3.22-3.18,3.23c-2.11,0-3.17-1.07-3.17-3.23v-9.37q0-3.22,3.17-3.22t3.18,3.22Zm-2.21-9.37c0-.69-.32-1-1-1h0c-.63,0-1,.35-1,1v9.37c0,.7.32,1,1,1s1-.34,1-1Z"/><path class="cls-2" d="M92.48,412.69q0,3.22-3.18,3.23c-2.12,0-3.17-1.07-3.17-3.23V400.34h2.21v12.35c0,.7.32,1,1,1s1-.34,1-1V400.34h2.21Z"/><path class="cls-2" d="M99.05,411.21l2.29,4.46H98.92l-2-4.06h-.31v4.06H94.43V400.34h3.22c2,0,2.95,1.08,2.95,3.23v4.81A2.9,2.9,0,0,1,99.05,411.21Zm-2.41-8.69v7h.51a2.16,2.16,0,0,0,.63-.06,1,1,0,0,0,.6-1v-4.89q0-1.05-1-1.05Z"/><path class="cls-2" d="M110.4,408.21l-2-3.33v10.8h-2.14V400.35h1.75l2.34,3.95,2.34-3.95h1.75v15.33h-2.14v-10.8Z"/><path class="cls-2" d="M116.52,400.34h5.73v2.18h-3.52v6.9h3v2.19h-3v1.88h3.52v2.18h-5.73Z"/><path class="cls-2" d="M127.88,408.84v-5.52c0-.69-.32-1-1-1h0c-.64,0-1,.35-1,1v3.75h-2.21v-3.75q0-3.22,3.18-3.22t3.17,3.22v12.35h-2l-.15-.94a2.16,2.16,0,0,1-2,1.19,1.85,1.85,0,0,1-1.63-.81,3.45,3.45,0,0,1-.55-2C123.79,410.53,125.15,409.11,127.88,408.84Zm0,2.1c-1.25.32-1.88,1-1.88,1.94,0,.67.15,1,.45,1,1-.07,1.43-.78,1.43-2.12Z"/><path class="cls-2" d="M132,415.67V400.34h2.21v13.15h3.53v2.18Z"/><path class="cls-2" d="M139,413.13h2.74v2.24l-.84,2.86h-1.43l.45-2.56H139Z"/><path class="cls-2" d="M147.61,400.34h2.21v9.09h1.93v-9.09H154v15.33h-2.21v-4.05h-1.93v4.05h-2.21Z"/><path class="cls-2" d="M156,400.34h5.74v2.18h-3.52v6.9h3v2.19h-3v1.88h3.52v2.18H156Z"/><path class="cls-2" d="M163.37,415.67V400.34h2.21v13.15h3.52v2.18Z"/><path class="cls-2" d="M170.43,400.34h3.22c2,0,2.95,1.08,2.95,3.23v4.81a2.9,2.9,0,0,1-2.12,3.06,5,5,0,0,1-1.48.17h-.36v4.06h-2.21Zm2.21,2.18v6.9h.51a2.16,2.16,0,0,0,.63-.06,1,1,0,0,0,.6-1v-4.81q0-1.05-1-1.05Z"/><path class="cls-2" d="M183.85,400.34l1.5,7.92,1.51-7.92h2.35l-2.75,11.3v4h-2.21v-4l-2.75-11.3Z"/><path class="cls-2" d="M196.73,412.69q0,3.22-3.18,3.23c-2.12,0-3.17-1.07-3.17-3.23v-9.37c0-2.15,1.05-3.22,3.17-3.22s3.18,1.07,3.18,3.22Zm-2.21-9.37c0-.69-.32-1-1-1h0c-.63,0-.95.35-.95,1v9.37c0,.7.32,1,1,1s1-.34,1-1Z"/><path class="cls-2" d="M204.88,412.69q0,3.22-3.18,3.23c-2.12,0-3.17-1.07-3.17-3.23V400.34h2.21v12.35c0,.7.32,1,1,1s1-.34,1-1V400.34h2.21Z"/><path class="cls-2" d="M211.45,411.21l2.29,4.46h-2.43l-2-4.06H209v4.06h-2.21V400.34h3.22c2,0,2.94,1.08,2.94,3.23v4.81A2.9,2.9,0,0,1,211.45,411.21ZM209,402.52v7h.51a2.16,2.16,0,0,0,.63-.06,1,1,0,0,0,.6-1v-4.89q0-1.05-1-1.05Z"/><path class="cls-2" d="M218.71,400.34h3.41c2,0,2.94,1.08,2.94,3.23v4.62a2.48,2.48,0,0,0,0,4.26c0,2.14-1,3.22-3.08,3.22h-3.27Zm2.21,2.18v6.71h.7a2.06,2.06,0,0,0,.63-.07.94.94,0,0,0,.6-1v-4.62q0-1.05-1-1.05Zm0,8.89v2.08h1c.64,0,1-.35,1-1a.94.94,0,0,0-.6-1,2.06,2.06,0,0,0-.63-.07Z"/><path class="cls-2" d="M233.06,412.69q0,3.22-3.18,3.23c-2.12,0-3.17-1.07-3.17-3.23v-9.37c0-2.15,1-3.22,3.17-3.22s3.18,1.07,3.18,3.22Zm-2.21-9.37c0-.69-.32-1-1-1h0c-.64,0-1,.35-1,1v9.37c0,.7.32,1,1,1s1-.34,1-1Z"/><path class="cls-2" d="M234.93,400.34h3.41c2,0,2.94,1.08,2.94,3.23v8.88c0,2.14-1,3.22-3.08,3.22h-3.27Zm2.21,2.18v11h1c.64,0,1-.35,1-1v-8.88q0-1.05-1-1.05Z"/><path class="cls-2" d="M244.8,400.34l1.51,7.92,1.5-7.92h2.35l-2.74,11.3v4h-2.21v-4l-2.75-11.3Z"/><path class="cls-1" d="M285.35,141.38A142.68,142.68,0,1,1,123.31,0h1.27c-2.27,4.21-3.64,10.12-3.47,18.43.68,33.54,4.55,71.28,6.63,104.76.15,2.38-1.48,6-3.43,7.21-14.15,8.54-21.15,20.81-21.28,37.31-.18,23.21-.54,46.42-.85,69.63a6.48,6.48,0,0,0,6.55,6.57c1.47,0,3.28,0,5.51,0a6.5,6.5,0,0,0,6.45-6.46c.1-21,.2-41.67.3-62.64a6.49,6.49,0,0,1,6.57-6.46h.22a6.48,6.48,0,0,1,6.4,6.53c-.18,21.06-.36,42.47-.53,62.48a6.48,6.48,0,0,0,6.48,6.53h6.57a6.48,6.48,0,0,0,6.48-6.47c0-21.32.07-41.51.1-62.52a6.48,6.48,0,0,1,6.65-6.47h.12a6.5,6.5,0,0,1,6.32,6.53c-.16,21-.33,42.17-.48,62.41a6.47,6.47,0,0,0,6.48,6.52h4a6.48,6.48,0,0,0,6.47-6.45c.15-25.16.57-49.09.09-73.8-.27-13.8-7.36-24.75-19.43-31.6-4.55-2.59-5.48-5.24-5-10.09q4.94-53,9.32-106A26.58,26.58,0,0,0,164.73.41,142.69,142.69,0,0,1,285.35,141.38Z"/><path class="cls-3" d="M159,13a129.47,129.47,0,1,1-33.94.16"/><path class="cls-4" d="M158.29,19a123.48,123.48,0,1,1-32.37.15"/><g id="MTsY9U.tif"><path class="cls-5" d="M182.86,237.39a6.48,6.48,0,0,1-6.47,6.45h-4a6.47,6.47,0,0,1-6.48-6.52c.15-20.24.32-41.38.48-62.41a6.5,6.5,0,0,0-6.32-6.53h-.12a6.48,6.48,0,0,0-6.65,6.47c0,21-.07,41.2-.1,62.52a6.48,6.48,0,0,1-6.48,6.47h-6.57a6.48,6.48,0,0,1-6.48-6.53c.17-20,.35-41.42.53-62.48a6.48,6.48,0,0,0-6.4-6.53h-.22a6.49,6.49,0,0,0-6.57,6.46c-.1,21-.2,41.67-.3,62.64a6.5,6.5,0,0,1-6.45,6.46c-2.23,0-4,0-5.51,0a6.48,6.48,0,0,1-6.55-6.57c.31-23.21.67-46.42.85-69.63.13-16.5,7.13-28.77,21.28-37.31,2-1.17,3.58-4.83,3.43-7.21-2.08-33.48-5.95-71.22-6.63-104.76-.17-8.31,1.2-14.22,3.47-18.43,0,0,38.82.2,40.15.41a26.58,26.58,0,0,1,3.09,15.53q-4.33,53-9.32,106c-.46,4.85.47,7.5,5,10.09,12.07,6.85,19.16,17.8,19.43,31.6C183.43,188.3,183,212.23,182.86,237.39Z"/></g><rect class="cls-6" x="128.49" y="199.07" width="28.37" height="13.84"/><rect class="cls-7" x="133.95" y="200.81" width="19.25" height="10.15"/></g></g></svg>