<svg xmlns="http://www.w3.org/2000/svg" viewBox="0 0 281.08 80.67"><defs><style>.cls-1{fill:#2e2c73;}</style></defs><g id="Layer_2" data-name="Layer 2"><g id="Layer_1-2" data-name="Layer 1"><path class="cls-1" d="M26.9,71.77V6.7a2,2,0,0,0-2.23-2.23A2,2,0,0,0,22.43,6.7V71.77h-9V6.7a2,2,0,0,0-2.23-2.23A2,2,0,0,0,9,6.7V71.77H0V6.7c0-2.25,1.17-4,3.51-5.3A14.43,14.43,0,0,1,10,0,11.33,11.33,0,0,1,18,3.11,11,11,0,0,1,25.59,0a14.89,14.89,0,0,1,6.7,1.4,5.59,5.59,0,0,1,3.6,5.3V71.77Z"/><path class="cls-1" d="M60.3,70.41A17,17,0,0,1,53,71.77a16.8,16.8,0,0,1-7.19-1.36c-2.69-1.14-4-2.93-4-5.39V15.69c0-2.46,1.34-4.28,4-5.48A19.05,19.05,0,0,1,53,8.94a19.29,19.29,0,0,1,7.27,1.27c2.63,1.2,3.94,3,3.94,5.48V40.35H50.79V65a2,2,0,0,0,2.32,2.28c1.43,0,2.15-.76,2.15-2.28V60.55h9V65Q64.24,68.67,60.3,70.41Zm-5-54.72A2,2,0,0,0,53,13.45a2,2,0,0,0-2.24,2.24v20.2h4.47Z"/><path class="cls-1" d="M81,71.77a16.79,16.79,0,0,1-7.18-1.36c-2.69-1.14-4-2.93-4-5.39V42.59q0-6.71,11.21-6.7c.12,0,.87.17,2.24.52V15.69a2.24,2.24,0,1,0-4.47,0v4.47h-9V15.69c0-2.46,1.34-4.28,4-5.48A19,19,0,0,1,81,8.94a19.31,19.31,0,0,1,7.28,1.27c2.63,1.2,3.94,3,3.94,5.48V71.77Zm2.24-29.18a2.24,2.24,0,1,0-4.47,0V65A2,2,0,0,0,81,67.3h2.24Z"/><path class="cls-1" d="M98.09,71.77V0h9V71.77Z"/><path class="cls-1" d="M144.55,71.77V31.37h-4.47v40.4h-9V0h9V26.9h4.47V0h9V71.77Z"/><path class="cls-1" d="M178,70.41a17.08,17.08,0,0,1-7.28,1.36,16.75,16.75,0,0,1-7.18-1.36c-2.69-1.14-4-2.93-4-5.39V15.69c0-2.46,1.35-4.28,4-5.48a19,19,0,0,1,7.18-1.27A19.35,19.35,0,0,1,178,10.21c2.62,1.2,3.94,3,3.94,5.48V40.35H168.53V65a2,2,0,0,0,2.32,2.28c1.43,0,2.15-.76,2.15-2.28V60.55h9V65C182,67.45,180.66,69.25,178,70.41Zm-5-54.72a2.24,2.24,0,1,0-4.47,0v20.2H173Z"/><path class="cls-1" d="M187.73,71.77V0h9V71.77Z"/><path class="cls-1" d="M223.1,69.76a6.46,6.46,0,0,1-4.78,2h-6.7v8.9h-9V8.94h15.69a6.46,6.46,0,0,1,4.78,2,6.5,6.5,0,0,1,2,4.74V65A6.59,6.59,0,0,1,223.1,69.76Zm-7-54.07a2,2,0,0,0-2.23-2.24h-2.23V67.3h2.23A2,2,0,0,0,216.08,65Z"/><path class="cls-1" d="M249,70.41a17.08,17.08,0,0,1-7.28,1.36,16.75,16.75,0,0,1-7.18-1.36c-2.69-1.14-4-2.93-4-5.39V15.69c0-2.46,1.34-4.28,4-5.48a19,19,0,0,1,7.18-1.27A19.35,19.35,0,0,1,249,10.21c2.62,1.2,3.94,3,3.94,5.48V40.35H239.45V65a2,2,0,0,0,2.32,2.28c1.43,0,2.15-.76,2.15-2.28V60.55h9V65C252.9,67.45,251.58,69.25,249,70.41Zm-5-54.72a2.24,2.24,0,1,0-4.47,0v20.2h4.47Z"/><path class="cls-1" d="M272.1,20.16V13.45h-2.23a2,2,0,0,0-2.24,2.24V71.77h-9V15.69c0-2.46,1.34-4.28,4-5.48a19.05,19.05,0,0,1,7.19-1.27h11.21V20.16Z"/></g></g></svg>