<svg xmlns="http://www.w3.org/2000/svg" viewBox="0 0 214.95 18.13"><defs><style>.cls-1{fill:#fcc491;}</style></defs><g id="Layer_2" data-name="Layer 2"><g id="Layer_1-2" data-name="Layer 1"><path class="cls-1" d="M0,.24H2.21V9.33H4.14V.24H6.35V15.57H4.14V11.52H2.21v4.05H0Z"/><path class="cls-1" d="M8.38.24h5.74V2.42H10.59v6.9h3v2.19h-3v1.88h3.53v2.18H8.38Z"/><path class="cls-1" d="M15.76,15.57V.24H18V13.39h3.52v2.18Z"/><path class="cls-1" d="M22.82.24H26C28,.25,29,1.32,29,3.47V8.28a2.89,2.89,0,0,1-2.11,3.06,5,5,0,0,1-1.48.17H25v4.06H22.82ZM25,2.42v6.9h.51a2.16,2.16,0,0,0,.63-.06,1,1,0,0,0,.6-1V3.47q0-1.05-1-1.05Z"/><path class="cls-1" d="M36.23.24l1.51,7.92L39.25.24h2.34l-2.74,11.3v4H36.64v-4L33.89.24Z"/><path class="cls-1" d="M49.12,12.59q0,3.23-3.18,3.23c-2.12,0-3.17-1.07-3.17-3.23V3.22c0-2.15,1-3.22,3.17-3.22s3.18,1.07,3.18,3.22ZM46.91,3.22c0-.69-.32-1-1-1h0c-.64,0-1,.35-1,1v9.37c0,.7.32,1,1,1s1-.34,1-1Z"/><path class="cls-1" d="M57.27,12.59q0,3.23-3.18,3.23c-2.12,0-3.18-1.07-3.18-3.23V.24h2.22V12.59c0,.7.32,1,1,1s1-.34,1-1V.24h2.22Z"/><path class="cls-1" d="M63.84,11.11l2.29,4.46H63.7l-2-4.06h-.3v4.06H59.22V.24h3.22c2,0,2.94,1.08,2.94,3.23V8.28A2.9,2.9,0,0,1,63.84,11.11ZM61.43,2.42v7h.51a2.16,2.16,0,0,0,.63-.06,1,1,0,0,0,.6-1V3.47q0-1.05-1-1.05Z"/><path class="cls-1" d="M75.19,8.11l-2-3.33v10.8H71.1V.25h1.74l2.35,4L77.53.25h1.74V15.58H77.14V4.78Z"/><path class="cls-1" d="M81.3.24H87V2.42H83.52v6.9h3v2.19h-3v1.88H87v2.18H81.3Z"/><path class="cls-1" d="M92.66,8.74V3.22c0-.69-.31-1-1-1h0c-.65,0-1,.35-1,1V7H88.52V3.22Q88.52,0,91.7,0t3.18,3.22V15.57h-2l-.16-.94a2.16,2.16,0,0,1-2,1.19A1.85,1.85,0,0,1,89.13,15a3.45,3.45,0,0,1-.55-2C88.58,10.43,89.94,9,92.66,8.74Zm0,2.1c-1.25.32-1.87,1-1.87,1.94,0,.67.15,1,.44,1,1-.07,1.43-.78,1.43-2.12Z"/><path class="cls-1" d="M96.75,15.57V.24H99V13.39h3.52v2.18Z"/><path class="cls-1" d="M103.73,13h2.75v2.24l-.85,2.86H104.2l.46-2.56h-.93Z"/><path class="cls-1" d="M112.4.24h2.21V9.33h1.93V.24h2.21V15.57h-2.21V11.52h-1.93v4.05H112.4Z"/><path class="cls-1" d="M120.78.24h5.74V2.42H123v6.9h3v2.19h-3v1.88h3.53v2.18h-5.74Z"/><path class="cls-1" d="M128.16,15.57V.24h2.21V13.39h3.52v2.18Z"/><path class="cls-1" d="M135.22.24h3.22c2,0,2.94,1.08,2.94,3.23V8.28a2.89,2.89,0,0,1-2.11,3.06,5.08,5.08,0,0,1-1.48.17h-.36v4.06h-2.21Zm2.21,2.18v6.9h.51a2.16,2.16,0,0,0,.63-.06,1,1,0,0,0,.6-1V3.47q0-1.05-1-1.05Z"/><path class="cls-1" d="M148.63.24l1.51,7.92L151.65.24H154l-2.74,11.3v4H149v-4L146.29.24Z"/><path class="cls-1" d="M161.52,12.59q0,3.23-3.18,3.23c-2.12,0-3.18-1.07-3.18-3.23V3.22q0-3.23,3.18-3.22t3.18,3.22ZM159.3,3.22c0-.69-.32-1-1-1h0c-.64,0-1,.35-1,1v9.37c0,.7.32,1,1,1s1-.34,1-1Z"/><path class="cls-1" d="M169.66,12.59q0,3.23-3.18,3.23c-2.11,0-3.17-1.07-3.17-3.23V.24h2.21V12.59c0,.7.32,1,1,1s1-.34,1-1V.24h2.21Z"/><path class="cls-1" d="M176.23,11.11l2.29,4.46H176.1l-2-4.06h-.3v4.06h-2.21V.24h3.22c2,0,2.94,1.08,2.94,3.23V8.28A2.89,2.89,0,0,1,176.23,11.11Zm-2.4-8.69v7h.51a2.26,2.26,0,0,0,.63-.06,1,1,0,0,0,.6-1V3.47q0-1.05-1-1.05Z"/><path class="cls-1" d="M183.5.24h3.41c2,0,2.94,1.08,2.94,3.23V8.09a2.2,2.2,0,0,1-1.21,2.13,2.2,2.2,0,0,1,1.21,2.13c0,2.14-1,3.22-3.08,3.22H183.5Zm2.21,2.18V9.13h.7a2.16,2.16,0,0,0,.63-.07.94.94,0,0,0,.6-1V3.47q0-1.05-1-1.05Zm0,8.89v2.08h1c.64,0,1-.35,1-1a.94.94,0,0,0-.6-1,2.16,2.16,0,0,0-.63-.07Z"/><path class="cls-1" d="M197.84,12.59q0,3.23-3.18,3.23c-2.11,0-3.17-1.07-3.17-3.23V3.22q0-3.23,3.17-3.22t3.18,3.22Zm-2.21-9.37c0-.69-.32-1-1-1h0c-.64,0-1,.35-1,1v9.37c0,.7.32,1,1,1s1-.34,1-1Z"/><path class="cls-1" d="M199.72.24h3.41c2,0,2.94,1.08,2.94,3.23v8.88c0,2.14-1,3.22-3.09,3.22h-3.26Zm2.21,2.18v11h1c.64,0,1-.35,1-1V3.47q0-1.05-1-1.05Z"/><path class="cls-1" d="M209.59.24l1.5,7.92L212.6.24H215l-2.75,11.3v4H210v-4L207.24.24Z"/></g></g></svg>