<svg xmlns="http://www.w3.org/2000/svg" viewBox="0 0 285.35 284.06"><defs><style>.cls-1{fill:#2e2c73;}.cls-2,.cls-3,.cls-5{fill:none;stroke-miterlimit:10;}.cls-2,.cls-3{stroke:#ffd160;}.cls-2{stroke-width:2px;}.cls-3{stroke-width:0.75px;}.cls-4{fill:#fff;}.cls-5{stroke:#2e2c73;stroke-width:4px;}.cls-6{fill:#ffd160;}</style></defs><g id="Layer_2" data-name="Layer 2"><g id="Layer_1-2" data-name="Layer 1"><path class="cls-1" d="M285.35,141.38A142.68,142.68,0,1,1,123.31,0h1.27c-2.27,4.21-3.64,10.12-3.47,18.43.68,33.54,4.55,71.28,6.63,104.76.15,2.38-1.48,6-3.43,7.21-14.15,8.54-21.15,20.81-21.28,37.31-.18,23.21-.54,46.42-.85,69.63a6.48,6.48,0,0,0,6.55,6.57c1.47,0,3.28,0,5.51,0a6.5,6.5,0,0,0,6.45-6.46c.1-21,.2-41.67.3-62.64a6.49,6.49,0,0,1,6.57-6.46h.22a6.48,6.48,0,0,1,6.4,6.53c-.18,21.06-.36,42.47-.53,62.48a6.48,6.48,0,0,0,6.48,6.53h6.57a6.48,6.48,0,0,0,6.48-6.47c0-21.32.07-41.51.1-62.52a6.48,6.48,0,0,1,6.65-6.47h.12a6.5,6.5,0,0,1,6.32,6.53c-.16,21-.33,42.17-.48,62.41a6.47,6.47,0,0,0,6.48,6.52h4a6.48,6.48,0,0,0,6.47-6.45c.15-25.16.57-49.09.09-73.8-.27-13.8-7.36-24.75-19.43-31.6-4.55-2.59-5.48-5.24-5-10.09q4.94-53,9.32-106A26.58,26.58,0,0,0,164.73.41,142.69,142.69,0,0,1,285.35,141.38Z"/><path class="cls-2" d="M159,13a129.47,129.47,0,1,1-33.94.16"/><path class="cls-3" d="M158.29,19a123.48,123.48,0,1,1-32.37.15"/><g id="MTsY9U.tif"><path class="cls-4" d="M182.86,237.39a6.48,6.48,0,0,1-6.47,6.45h-4a6.47,6.47,0,0,1-6.48-6.52c.15-20.24.32-41.38.48-62.41a6.5,6.5,0,0,0-6.32-6.53h-.12a6.48,6.48,0,0,0-6.65,6.47c0,21-.07,41.2-.1,62.52a6.48,6.48,0,0,1-6.48,6.47h-6.57a6.48,6.48,0,0,1-6.48-6.53c.17-20,.35-41.42.53-62.48a6.48,6.48,0,0,0-6.4-6.53h-.22a6.49,6.49,0,0,0-6.57,6.46c-.1,21-.2,41.67-.3,62.64a6.5,6.5,0,0,1-6.45,6.46c-2.23,0-4,0-5.51,0a6.48,6.48,0,0,1-6.55-6.57c.31-23.21.67-46.42.85-69.63.13-16.5,7.13-28.77,21.28-37.31,2-1.17,3.58-4.83,3.43-7.21-2.08-33.48-5.95-71.22-6.63-104.76-.17-8.31,1.2-14.22,3.47-18.43,0,0,38.82.2,40.15.41a26.58,26.58,0,0,1,3.09,15.53q-4.33,53-9.32,106c-.46,4.85.47,7.5,5,10.09,12.07,6.85,19.16,17.8,19.43,31.6C183.43,188.3,183,212.23,182.86,237.39Z"/></g><rect class="cls-5" x="128.49" y="199.07" width="28.37" height="13.84"/><rect class="cls-6" x="133.95" y="200.81" width="19.25" height="10.15"/></g></g></svg>