<svg id="Capa_1" enable-background="new 0 0 509.275 509.275" height="512" viewBox="0 0 509.275 509.275" width="512" xmlns="http://www.w3.org/2000/svg"><g><path d="m479.637 314.485v-182.744l-360-65v-22.466c0-24.413-19.861-44.275-44.274-44.275h-45.726v30h45.725c7.871 0 14.275 6.404 14.275 14.275v277.005c0 31.979 26.016 57.995 57.995 57.995h12.005v34.187c-6.129-2.686-12.891-4.187-20-4.187-27.57 0-50 22.43-50 50s22.43 50 50 50c25.883 0 47.233-19.769 49.749-45h.251v-85h260v34.187c-6.129-2.686-12.891-4.187-20-4.187-27.57 0-50 22.43-50 50s22.43 50 50 50c25.883 0 47.233-19.769 49.749-45h.251v-115h-332.005c-15.437 0-27.995-12.558-27.995-27.995v-11.796zm-340 164.79c-11.028 0-20-8.972-20-20s8.972-20 20-20 20 8.972 20 20-8.972 20-20 20zm290 0c-11.028 0-20-8.972-20-20s8.972-20 20-20 20 8.972 20 20-8.972 20-20 20zm-160-197.71-60-.833v-167.256l60 10.833zm30-151.839 55 9.931v143.089l-55-.764zm-120 150.589-60-.833v-182.256l60 10.833zm270 3.75-65-.903v-138.089l65 11.736z"/></g></svg>