<?xml version="1.0" encoding="iso-8859-1"?>
<!-- Generator: Adobe Illustrator 19.0.0, SVG Export Plug-In . SVG Version: 6.00 Build 0)  -->
<svg version="1.1" id="Capa_1" xmlns="http://www.w3.org/2000/svg" xmlns:xlink="http://www.w3.org/1999/xlink" x="0px" y="0px"
	 viewBox="0 0 512 512" style="enable-background:new 0 0 512 512;" xml:space="preserve">
<g>
	<g>
		<path d="M503.916,404.219h-13.619c-0.736-21.668-4.422-42.998-10.989-63.506c-7.146-22.313-17.602-43.385-31.086-62.658
			c-13.301-19.015-29.309-35.926-47.579-50.262c-18.432-14.477-38.825-26.053-60.609-34.418
			c-24.147-9.276-49.495-14.414-75.473-15.342l23.946-23.949c10.537-10.538,10.537-27.685-0.001-38.224
			c-5.103-5.102-11.889-7.913-19.108-7.913c-4.775,0-9.36,1.23-13.395,3.538c-4.035-2.308-8.621-3.538-13.395-3.538
			c-7.217,0-14.004,2.81-19.109,7.912c-5.106,5.105-7.919,11.893-7.919,19.114c0,7.221,2.813,14.008,7.918,19.112l23.949,23.949
			c-16.684,0.6-33.227,2.942-49.296,7.021c-18.26,4.635-35.947,11.49-52.579,20.394c-3.934,2.102-5.422,7.006-3.32,10.941
			c1.412,2.641,4.15,4.268,7.136,4.268c1.326,0,2.641-0.323,3.816-0.948c15.489-8.29,31.949-14.671,48.936-18.982
			c17.086-4.338,34.779-6.572,52.587-6.684c0.416,0.066,0.84,0.11,1.275,0.11c0.447,0,0.882-0.045,1.308-0.116
			c26.512,0.165,52.386,5.012,76.925,14.428c20.285,7.794,39.267,18.573,56.438,32.046c16.999,13.355,31.906,29.103,44.292,46.802
			c12.557,17.936,22.301,37.564,28.951,58.336c6.061,18.924,9.481,38.585,10.209,58.569H37.891
			c0.547-14.987,2.598-29.853,6.162-44.298c4.075-16.557,10.122-32.639,17.969-47.795c7.707-14.896,17.16-28.919,28.101-41.703
			c10.887-12.719,23.25-24.199,36.735-34.116c3.59-2.641,4.365-7.706,1.725-11.296c-1.51-2.069-3.956-3.299-6.51-3.299
			c-1.736,0-3.396,0.539-4.786,1.574c-14.476,10.639-27.745,22.96-39.441,36.617c-11.749,13.721-21.914,28.801-30.191,44.797
			c-8.43,16.287-14.919,33.565-19.305,51.35c-3.867,15.706-6.085,31.875-6.64,48.168H8.084c-4.465,0-8.084,3.619-8.084,8.084
			c0,22.288,18.133,40.421,40.421,40.421h431.158c22.288,0,40.421-18.133,40.421-40.421
			C512,407.838,508.381,404.219,503.916,404.219z M256.004,163.724l-21.074-21.075c-2.054-2.05-3.183-4.777-3.183-7.678
			s1.13-5.627,3.181-7.678c2.051-2.05,4.778-3.179,7.679-3.179c2.902,0,5.63,1.13,7.682,3.18c3.158,3.155,8.274,3.155,11.429-0.001
			c2.052-2.051,4.778-3.179,7.68-3.179c2.901,0,5.627,1.128,7.676,3.177c4.234,4.235,4.234,11.125,0,15.36L256.004,163.724z
			 M471.579,436.555H40.421c-10.539,0-19.525-6.759-22.862-16.168H29.58c0.021,0,0.041,0.003,0.062,0.003
			c0.021,0,0.041-0.003,0.062-0.003h452.592c0.021,0,0.041,0.003,0.062,0.003s0.041-0.003,0.062-0.003h12.021
			C491.103,429.797,482.118,436.555,471.579,436.555z"/>
	</g>
</g>
<g>
	<g>
		<path d="M46.136,137.101c-26.915-26.915-0.38-63.362,0.762-64.9c2.666-3.571,1.939-8.627-1.628-11.303
			c-3.572-2.678-8.639-1.955-11.318,1.617c-0.368,0.491-9.06,12.199-13.458,28.323c-6.096,22.354-1.183,42.304,14.209,57.697
			c26.916,26.914,0.381,63.363-0.75,64.886c-2.679,3.572-1.955,8.639,1.617,11.318c1.454,1.09,3.156,1.618,4.844,1.617
			c2.458,0,4.886-1.116,6.474-3.234c0.368-0.491,9.061-12.199,13.458-28.324C66.442,172.444,61.529,152.494,46.136,137.101z"/>
	</g>
</g>
<g>
	<g>
		<path d="M132.367,104.759c-6.567-6.566-8.618-13.415-6.27-20.936c1.959-6.278,6.261-10.735,6.27-10.745
			c3.157-3.158,3.157-8.276,0-11.434c-3.157-3.156-8.276-3.156-11.433,0c-0.69,0.69-6.832,7.017-10.037,16.634
			c-4.494,13.483-0.929,26.948,10.037,37.915c6.576,6.574,8.624,13.474,6.264,21.094c-1.945,6.28-6.181,10.776-6.328,10.931
			c-3.107,3.18-3.065,8.276,0.102,11.403c1.576,1.556,3.628,2.331,5.679,2.331c2.086,0,4.172-0.803,5.753-2.404
			c0.688-0.697,6.811-7.084,10.007-16.755C146.895,129.227,143.328,115.719,132.367,104.759z"/>
	</g>
</g>
<g>
	<g>
		<path d="M477.296,148.534c15.392-15.393,20.305-35.343,14.208-57.697c-4.397-16.124-13.09-27.833-13.458-28.323
			c-2.674-3.567-7.725-4.289-11.298-1.62c-3.572,2.666-4.306,7.728-1.647,11.306c1.142,1.538,27.677,37.985,0.761,64.9
			c-15.391,15.393-20.305,35.344-14.208,57.698c4.397,16.125,13.09,27.834,13.458,28.324c1.586,2.116,4.008,3.229,6.463,3.229
			c1.683,0,3.381-0.524,4.834-1.61c3.573-2.666,4.307-7.728,1.648-11.306C476.915,211.897,450.38,175.449,477.296,148.534z"/>
	</g>
</g>
<g>
	<g>
		<path d="M384.8,137.287c-2.361-7.62-0.312-14.52,6.262-21.094c10.967-10.966,14.533-24.432,10.038-37.915
			c-3.206-9.617-9.347-15.943-10.037-16.634c-3.143-3.143-8.217-3.142-11.381-0.016c-3.162,3.124-3.19,8.234-0.085,11.416
			c0.043,0.044,4.344,4.501,6.304,10.779c2.346,7.521,0.296,14.37-6.27,20.936c-10.96,10.961-14.528,24.468-10.044,38.034
			c3.196,9.671,9.32,16.058,10.007,16.755c1.577,1.597,3.651,2.395,5.726,2.395c2.038,0,4.079-0.768,5.655-2.306
			c3.182-3.104,3.243-8.214,0.157-11.415C391.089,148.177,386.77,143.647,384.8,137.287z"/>
	</g>
</g>
<g>
</g>
<g>
</g>
<g>
</g>
<g>
</g>
<g>
</g>
<g>
</g>
<g>
</g>
<g>
</g>
<g>
</g>
<g>
</g>
<g>
</g>
<g>
</g>
<g>
</g>
<g>
</g>
<g>
</g>
</svg>
